<svg xmlns="http://www.w3.org/2000/svg" data-name="Layer 2" viewBox="0 0 100 125" x="0px" y="0px"><title>Artboard 72</title><path d="M86.3,88.555,81.047,78H59.3l2.736,12H85.408a1,1,0,0,0,.895-1.445Z"/><path d="M13.7,88.555a1,1,0,0,0,.9,1.445H38.845L40.7,78H18.953Z"/><path d="M72.36,60.555A1,1,0,0,0,71.465,60H67.777A27.238,27.238,0,0,1,61.3,64.132L58.518,70H77.064Z"/><path d="M74.523,39.034A24.523,24.523,0,1,0,40.928,61.818L49.1,79.065a1,1,0,0,0,1.807,0l8.163-17.246A24.661,24.661,0,0,0,74.523,39.034ZM38,25.943a1,1,0,0,1,1-1h4.822L38,29.145ZM39,52a1,1,0,0,1-1-1V35.311l-1.258.908A1,1,0,1,1,35.571,34.6L49.42,24.6a.914.914,0,0,1,.156-.079.967.967,0,0,1,.12-.061,1.038,1.038,0,0,1,.307-.05c.017,0,.034.007.052.008a.97.97,0,0,1,.261.043.862.862,0,0,1,.086.043.951.951,0,0,1,.183.092L64.727,34.658a1,1,0,0,1-.581,1.815.989.989,0,0,1-.578-.186L62,35.172V51a1,1,0,0,1-1,1Z"/><rect x="46" y="37.004" width="8" height="8" rx="1"/><path d="M32.222,60H28.535a1,1,0,0,0-.895.555L22.936,70H41.485l-2.78-5.867A27.222,27.222,0,0,1,32.222,60Z"/><text x="0" y="115" fill="#000000" font-size="5px" font-weight="bold" font-family="'Helvetica Neue', Helvetica, Arial-Unicode, Arial, Sans-serif">Created by Nikita Kozin</text><text x="0" y="120" fill="#000000" font-size="5px" font-weight="bold" font-family="'Helvetica Neue', Helvetica, Arial-Unicode, Arial, Sans-serif">from the Noun Project</text></svg>