<svg xmlns="http://www.w3.org/2000/svg" xmlns:xlink="http://www.w3.org/1999/xlink" xml:space="preserve" style="shape-rendering:geometricPrecision;text-rendering:geometricPrecision;image-rendering:optimizeQuality;" viewBox="0 0 6.82666 8.533325000000001" x="0px" y="0px" fill-rule="evenodd" clip-rule="evenodd"><defs><style type="text/css">
   
    .fil2 {fill:none}
    .fil1 {fill:black}
    .fil0 {fill:black;fill-rule:nonzero}
   
  </style></defs><g><path class="fil0" d="M5.90374 1.45161l0 0.572764c0,0.0589094 -0.0477598,0.106669 -0.106669,0.106669l-0.384949 0 0 0.384949c0,0.0589094 -0.0477598,0.106669 -0.106669,0.106669l-0.572768 0c-0.0589094,0 -0.106669,-0.0477598 -0.106669,-0.106669l0 -0.384949 -0.384941 0c-0.0589094,0 -0.106669,-0.0477598 -0.106669,-0.106669l0 -0.572764c0,-0.0589094 0.0477598,-0.106669 0.106669,-0.106669l0.384941 0 0 -0.384949c0,-0.0589094 0.0477598,-0.106669 0.106669,-0.106669l0.572768 0c0.0589094,0 0.106669,0.0477598 0.106669,0.106669l0 0.384949 0.384949 0c0.0589094,0 0.106669,0.0477598 0.106669,0.106669z"/><path class="fil1" d="M3.86116 4.66219l0 0zm0.0251535 -2.35413l0 -0.490949c0,-0.0589094 -0.0477598,-0.106669 -0.106669,-0.106669l-0.947807 0c-0.0915394,-0.0340315 -0.185732,-0.0613543 -0.281827,-0.0802402 -0.0975315,-0.0191693 -0.196587,-0.0296417 -0.296291,-0.0296417 -0.16537,0 -0.324091,0.0244921 -0.475484,0.0736535 -0.15022,0.0487835 -0.292421,0.12189 -0.425921,0.21948 -0.142929,0.10448 -0.249618,0.229685 -0.321091,0.373236 -0.0725669,0.145764 -0.108303,0.308957 -0.108303,0.487157 0,0.228819 0.0602362,0.420898 0.166213,0.581268 0.0829528,0.125528 0.193138,0.22998 0.323673,0.316134 -0.085126,0.0602362 -0.162551,0.129543 -0.225933,0.209398 -0.105276,0.132626 -0.171657,0.292157 -0.171657,0.484244 0,0.117461 0.0269803,0.22148 0.0746693,0.313264 0.0269646,0.0518976 0.0604764,0.0994724 0.099378,0.143008 -0.0508976,0.0331417 -0.0976024,0.0716969 -0.137291,0.116618 -0.0790315,0.0894449 -0.129051,0.20085 -0.129051,0.339835 0,0.350484 0.257004,0.531193 0.571728,0.623445 0.286811,0.0840709 0.61926,0.0920354 0.824996,0.0920354 0.181488,0 0.373528,-0.0125118 0.561799,-0.0484843 0.190909,-0.0364803 0.377024,-0.0972362 0.54326,-0.19363 0.154744,-0.0897323 0.271976,-0.204551 0.351039,-0.342374 0.0793622,-0.138346 0.119362,-0.297949 0.119362,-0.47674 0,-0.083811 -0.010563,-0.165921 -0.0326378,-0.245256l-0.00120472 -0.00466142 -0.000102362 0 -0.000110236 3.14961e-005c-0.0223701,-0.0785669 -0.0558976,-0.153693 -0.101476,-0.224268 -0.0478543,-0.0740984 -0.107177,-0.135665 -0.174378,-0.186512 -0.0716378,-0.0542087 -0.152783,-0.0962795 -0.238713,-0.128441 -0.0555984,-0.0208071 -0.112571,-0.0358819 -0.168827,-0.0470906 -0.0544567,-0.0108465 -0.111016,-0.0186457 -0.165933,-0.0247913 -0.0739606,-0.00826772 -0.150374,-0.0135866 -0.227992,-0.0168701 -0.0811339,-0.00343701 -0.15535,-0.00463386 -0.225283,-0.00463386l-0.489327 0c-0.0269843,0 -0.0648858,-0.00135433 -0.0976457,-0.00834252 -0.0177323,-0.00378346 -0.0325748,-0.00769685 -0.0370315,-0.0109055 -0.00076378,-0.00356693 -0.00103937,-0.00910236 -0.00103937,-0.0153819 0,-0.0134134 0.00167717,-0.0239724 0.00512992,-0.0319646 0.00365748,-0.00846063 0.0102559,-0.017122 0.0198858,-0.0262638 0.0106772,-0.0101378 0.0215157,-0.0180512 0.0323268,-0.0227835 0.00870472,-0.00381496 0.0180472,-0.00579134 0.0280315,-0.00538583l0.357469 0.0146535c0.0999213,0.00409843 0.202591,-0.0127638 0.301933,-0.0402717 0.0956063,-0.0264764 0.187827,-0.0626614 0.270969,-0.0990354 0.10328,-0.0451811 0.202327,-0.101118 0.291772,-0.170075 0.0818661,-0.0631102 0.155756,-0.137457 0.217638,-0.224846 0.0619055,-0.0874252 0.106252,-0.180878 0.135287,-0.278244 0.0307835,-0.103228 0.044874,-0.210744 0.044874,-0.320055 0,-0.0985512 -0.0158307,-0.192366 -0.0448307,-0.281362 -0.0105079,-0.032252 -0.0227677,-0.0637913 -0.0366339,-0.094622l0.22239 0c0.0589094,0 0.106669,-0.0477598 0.106669,-0.106669zm-2.00554 2.61356c0.0980591,-0.0189803 0.199657,-0.0216024 0.258665,-0.0216024 0.0842717,0 0.175929,0.000503937 0.290406,0.0026378 0.100154,0.00187008 0.198346,0.00506693 0.292701,0.0104882 0.0363819,0.00209055 0.069748,0.00422835 0.0966811,0.00642913 0.0336063,0.00274409 0.0665984,0.00597244 0.0984961,0.00990157 0.0182953,0.00225197 0.0384409,0.0049685 0.0628425,0.0091063 0.0231299,0.00392126 0.046315,0.00874016 0.0687087,0.0150079 0.0458504,0.0128386 0.0903898,0.030815 0.127835,0.0623425 0.0465315,0.0391811 0.0761417,0.0917362 0.0761417,0.165748 0,0.022937 -0.00203543,0.0459803 -0.00661024,0.0689646 -0.0046811,0.0234764 -0.0122677,0.0470197 -0.0233425,0.0704685 -0.0656732,0.139024 -0.233142,0.208831 -0.411169,0.24302 -0.158756,0.0304843 -0.325421,0.0339921 -0.420701,0.0339921 -0.0893228,0 -0.245594,-0.00334252 -0.394701,-0.0319606 -0.168291,-0.0323031 -0.326854,-0.0985591 -0.38978,-0.230846 -0.0107402,-0.0225787 -0.0180787,-0.0453386 -0.022622,-0.0680945 -0.00442126,-0.022189 -0.00637402,-0.0444134 -0.00637402,-0.0664961 0,-0.0172402 0.00170079,-0.0356339 0.00575984,-0.0553071 0.00424803,-0.0206339 0.0109685,-0.0406969 0.0208307,-0.0597362 0.0489488,-0.0945197 0.15985,-0.141535 0.276232,-0.164063zm0.555382 -2.93751c0.133677,0.0618583 0.201445,0.223264 0.23498,0.396008 0.000787402,0.00286614 0.0014685,0.0057874 0.00202362,0.00876378l-0.00026378 4.72441e-005c0.029248,0.156606 0.0324252,0.319984 0.0324252,0.410583 0,0.0901024 -0.00387402,0.234709 -0.0323898,0.373654 -0.0319094,0.155472 -0.0959843,0.301642 -0.221343,0.367343 -0.0265945,0.013937 -0.0536496,0.0233661 -0.0808228,0.0291575 -0.026752,0.00570079 -0.0531378,0.00816142 -0.0789606,0.00816142 -0.0233307,0 -0.0474685,-0.00225197 -0.0723465,-0.00746457 -0.025189,-0.00527559 -0.0501772,-0.013811 -0.0746535,-0.0263661 -0.122142,-0.0626654 -0.183933,-0.205945 -0.214327,-0.357906 -0.0267362,-0.133685 -0.0302165,-0.274705 -0.0302165,-0.360209 0,-0.0930433 0.00323228,-0.262402 0.0334488,-0.424866 0.0338858,-0.182197 0.103724,-0.353823 0.244031,-0.417587 0.0210827,-0.00958661 0.0429331,-0.0163071 0.0652874,-0.0206299 0.0216614,-0.00419291 0.042815,-0.00606299 0.0634252,-0.00606299 0.0209803,0 0.0423307,0.00187795 0.0639567,0.00611024 0.022126,0.00433071 0.0441063,0.0112441 0.0657441,0.0212638zm-0.502783 2.02526c-0.000480315,-0.000681102 -8.66142e-005,-0.00015748 0.000362205,0.000417323l-0.000362205 -0.000417323z"/></g><rect class="fil2" width="6.82666" height="6.82666"/><text x="0" y="21.82666" fill="#000000" font-size="5px" font-weight="bold" font-family="'Helvetica Neue', Helvetica, Arial-Unicode, Arial, Sans-serif">Created by Grafix Point</text><text x="0" y="26.82666" fill="#000000" font-size="5px" font-weight="bold" font-family="'Helvetica Neue', Helvetica, Arial-Unicode, Arial, Sans-serif">from the Noun Project</text></svg>