<svg xmlns="http://www.w3.org/2000/svg" viewBox="0 0 544.66 363.88"><defs><style>.cls-1{font-size:236.02px;fill:#1d1d1b;font-family:Floane-Bold, Floane;font-weight:700;}.cls-2{fill:#be1622;fill-rule:evenodd;}.cls-3{fill:#010101;}</style></defs><g id="Capa_2" data-name="Capa 2"><g id="Capa_1-2" data-name="Capa 1"><text class="cls-1" transform="translate(286.22 286)">HC</text><path class="cls-2" d="M141.22,123S112.83,82.91,73.71,96.68a59.61,59.61,0,0,0-25,17.25c-9.32,12.15-13.13,29.26-8.59,42.56a66.79,66.79,0,0,0,4.67,10,99.85,99.85,0,0,0,12.18,16.8c1,1.21,1.94,2.18,2.52,2.81,10.41,11.3,21.37,22.65,32.65,34.27,17.7,18.23,38.14,38.68,49.13,47.51l94.31-94.31H151.67v9.67h51.27L141.18,245,63,166.83a39.69,39.69,0,0,1-5.38-12.47c-.8-3.35-3.26-13.66,1.86-23.91C66,117.29,80.25,113.87,83.74,113a41.4,41.4,0,0,1,26.18,2.54A42.92,42.92,0,0,1,129.62,133Z"/><path class="cls-3" d="M246.59,286H27.1a11.65,11.65,0,0,1-11.63-11.63V131.46H11.63A11.63,11.63,0,0,1,4,111L129.24,2.83a11.63,11.63,0,0,1,15.21,0L171.21,26a11.66,11.66,0,0,1,11.57-10.37h34.8a11.65,11.65,0,0,1,11.63,11.63V76.07l40.46,35a11.63,11.63,0,0,1-7.6,20.44h-3.84v142.9A11.66,11.66,0,0,1,246.59,286ZM29.43,272H244.26V117.5h11.55l-40.56-35V29.55H185.1V56.41l-48.26-41.7L17.88,117.5H29.43Z"/></g></g></svg>